<svg id="Ebene_1" data-name="Ebene 1" xmlns="http://www.w3.org/2000/svg" viewBox="0 0 144.35 133"><defs><style>.cls-1{fill:#94618e;}.cls-1,.cls-2{stroke:#000;stroke-miterlimit:10;}.cls-2{fill:#f4decb;}</style></defs><title>ActoutLogo</title><rect class="cls-1" x="19.71" y="11" width="88" height="121"/><path d="M44,104" transform="translate(-0.29)"/><polygon points="14.71 133 18.71 133 51.71 41 84.71 133 115.71 133 67.71 0 62.71 0 14.71 133"/><polygon class="cls-2" points="34.26 9.78 32.93 13.55 108.74 75.24 11.01 75.8 0.71 105.04 142.1 103.95 143.76 99.23 34.26 9.78"/><polygon points="38.53 67 14.71 133 18.71 133 42.38 67 38.53 67"/><polygon points="91.89 67 61.03 67 84.71 133 115.71 133 91.89 67"/><polygon class="cls-2" points="64.21 75.5 10.06 75.8 0.71 105.04 74.71 104.41 64.21 75.5"/></svg>